<?xml version="1.0" encoding="utf-8"?>
<!-- Generator: Adobe Illustrator 26.0.2, SVG Export Plug-In . SVG Version: 6.00 Build 0)  -->
<svg version="1.1" id="Calque_1" xmlns="http://www.w3.org/2000/svg" xmlns:xlink="http://www.w3.org/1999/xlink" x="0px" y="0px"
	 viewBox="0 0 797.1 592" style="enable-background:new 0 0 797.1 592;" xml:space="preserve">
<style type="text/css">
	.st0{fill:#5A3C8D;}
	.st1{fill:#F08B1E;}
	.st2{fill:#EA532D;}
	.st3{fill:#E72A7D;}
</style>
<g>
	<g>
		<path class="st0" d="M247.1,482.6h13.7c1,2.9,2,5.9,3.1,9.2c0.5-0.3,0.9-0.5,1.1-0.8c7.5-8.7,17.5-11.1,28.6-10
			c8.3,0.8,15.9,3.7,22,9.4c8.2,7.6,11.6,17.1,11.8,27.8c0.3,11.6-2.7,22.2-11.9,30.1c-11.4,9.8-24.7,12.1-39.1,7.3
			c-3.2-1.1-5.9-3.6-8.8-5.4c-0.5-0.3-0.9-0.7-2-1.5v3.8c0,11.7,0,23.4,0,35.1c0,1.3-0.3,2.7-0.5,4.3c-6.3,0.1-12,0.2-18-0.1
			L247.1,482.6L247.1,482.6z M287.3,539.8c12.9,0,21.4-8.1,21.4-20.4c0-12.3-8.6-20.6-21.3-20.6c-12.9,0-21.6,8.4-21.6,20.7
			C265.9,531.6,274.5,539.8,287.3,539.8"/>
		<path class="st0" d="M88.3,482.7H108c-0.2,1.4-0.2,2.4-0.4,3.5c-6.3,21.7-12.7,43.3-19.1,64.9c-0.5,1.6-1,3.2-1.6,4.9H67
			c-4.3-15.7-8.5-31.3-12.8-46.9c-0.2,0-0.3,0-0.5-0.1c-4.3,15.7-8.6,31.3-13,47h-19c-0.5-1.1-1.1-2.1-1.5-3.2
			C13.6,530.6,7,508.4,0.5,486.1c-0.3-0.9-0.4-1.9-0.5-2.8c2.4-1.1,14.1-1.4,19.9-0.6c0.4,0.9,0.9,2,1.2,3.1
			c3.3,13.7,6.5,27.4,9.8,41.1c0.2,0.9,0.5,1.8,1.2,2.7c0.6-1.9,1.2-3.7,1.8-5.6c3.6-12.5,7.2-25.1,10.9-37.6
			c1.2-4.1,1.2-4.1,5.6-4.1c2.8,0,5.5,0,8.3,0c1.1,0,2.3,0.2,3.9,0.4c4.5,16.1,8.9,32.2,13.3,48.3c0.2,0,0.4,0,0.5,0.1
			c0.3-0.6,0.6-1.1,0.7-1.7c3.3-14.6,6.5-29.3,9.9-43.9C87.4,484.5,87.9,483.6,88.3,482.7"/>
		<path class="st0" d="M508.3,556h-15.1c-0.9-2.7-1.9-5.7-2.9-8.9c-0.7,0.6-1.3,1-1.7,1.5c-5.4,5.8-12.1,8.8-20.1,9.2
			c-11.4,0.7-21.7-2.1-30.1-9.9c-6.5-6.1-9.8-13.7-10.9-22.2c-1.3-10.2,0.1-20,6-28.8c6.2-9.3,15.3-14.1,26.6-15.4
			c6.1-0.7,12.1-0.5,17.9,1.6c3.7,1.4,7,3.4,9.7,6.2c0.7,0.7,1.3,1.6,1.9,2.4c0.3-0.1,0.6-0.2,0.8-0.4c1-3,2.1-6,3-8.8h14.8
			c0.2,1.3,0.6,2.5,0.6,3.6c0,22.1,0,44.2,0,66.3C508.8,553.5,508.5,554.6,508.3,556 M488.6,519.3c-0.1-12.3-9-20.5-22-20.4
			c-12.6,0.1-21,8.4-20.8,20.7c0.1,12.2,8.7,20.5,21.2,20.4C480,540,488.8,531.6,488.6,519.3"/>
		<path class="st0" d="M412.5,556h-18c-0.1-1.5-0.3-2.7-0.3-4c0-11,0-22,0-33c0-2.6-0.2-5.3-0.7-7.9c-1.1-5.8-4.2-10.3-10.5-11.8
			s-11.8,0-16.2,4.6c-4.8,5.1-6,11.3-6.1,17.9c-0.1,10.1,0,20.2,0,30.3c0,1.3-0.3,2.5-0.4,3.9h-17.8c-0.9-2.4-1.2-108.6-0.2-113
			c5.7-0.5,11.6-0.2,17.9-0.2c0.2,1.7,0.4,3,0.4,4.4c0,13,0,26.1,0,39.1v4c1.2-1,1.9-1.5,2.5-2.1c10.9-11.5,40.2-12,47.8,11.4
			c1.6,4.9,2.2,9.9,2.2,15.1c0,12.4,0,24.8,0,37.3C413,553.3,412.7,554.6,412.5,556"/>
		<path class="st0" d="M175.1,556h-17.7c-1.1-2.8-1.1-70.2-0.2-73c3.2-1.1,12.5-0.9,15,0.4c0.7,2.6,1.3,5.3,2.2,8.6
			c3.4-4.3,7.1-7.6,11.9-9.3c16.1-5.7,35.6-0.6,40.3,20.1c0.9,3.9,1.3,8.1,1.3,12.1c0.2,12.3,0.1,24.7,0,37c0,1.3-0.2,2.6-0.4,4h-18
			c-0.1-1.4-0.4-2.7-0.4-3.9c0-11.1,0.1-22.2-0.1-33.3c0-2.9-0.3-5.9-1-8.8c-1.3-5.7-4.9-9.7-11.1-10.9c-6.5-1.2-12,0.7-16.1,5.7
			c-4,4.9-5.3,10.8-5.3,16.9c0,10,0,20,0,30C175.5,553.1,175.3,554.4,175.1,556"/>
		<path class="st0" d="M545.8,555.9h-17.3c-1-2.6-1.1-69.7-0.1-73h12.9c0.8,1.9,1.6,3.7,2.5,5.9c4.6-3.5,9.3-6.4,15.2-7.2
			s11.3,0.2,17,2.3c-1.5,5.8-2.9,11.3-4.5,17.2c-2-0.5-3.6-0.9-5.2-1.4c-6.7-2-12.6-1-17.4,4.3c-1.9,2.1-2.8,4.4-2.8,7.2
			c0.1,13.5,0,26.9,0,40.4C546.1,552.9,545.9,554.3,545.8,555.9"/>
		<path class="st0" d="M119.3,555.9c-1-2.2-1.5-67.6-0.6-72.6c2-1.2,13.4-1.6,18.1-0.5c0.2,0.9,0.5,2,0.5,3c0,22.3,0,44.6,0,67
			c0,1-0.2,2-0.4,3.1H119.3z"/>
		<path class="st0" d="M139.9,457.4c0,7.1-4.9,11.8-12.1,11.7c-7.2,0-12.3-4.9-12.2-11.8c0.1-7,4.8-11.5,12.4-11.4
			C135.2,446,139.9,450.4,139.9,457.4"/>
		<path class="st0" d="M587,482.9h14.9c0.8,2.8,1.6,5.5,2.5,8.6c6-7.9,13.9-11,23.6-10.5c9.8,0.5,16.6,5.3,21.4,13.8
			c0.9-1.2,1.5-2,2-2.8c9.4-13.3,29.9-14.2,40.2-5c6.2,5.6,8.9,12.8,9.9,20.7c0.4,3.2,0.4,6.5,0.4,9.8c0,11.6,0,23.2,0,34.9
			c0,1.3-0.2,2.6-0.4,4h-18.1c-0.2-1.3-0.5-2.6-0.5-3.8c0-11,0.1-22-0.1-33c0-3.5-0.3-7.1-1.1-10.6c-1.1-5-4.2-8.7-9.9-9.4
			c-6.3-0.8-11.3,1.3-14.4,6.7c-2.1,3.6-3.3,7.6-3.4,11.7c-0.2,11.3-0.2,22.6-0.3,33.9c0,1.4-0.2,2.8-0.3,4.5H635
			c-0.2-1.5-0.4-2.8-0.4-4.2c0-11,0.1-22-0.1-33c0-3.4-0.3-6.9-1.1-10.3c-1.1-4.8-4-8.4-9.4-9.2c-6-1-10.9,1-14.2,6
			c-3.2,4.8-4.2,10.2-4.2,15.8c-0.1,6.1,0,12.2,0,18.3c0,4.4,0,8.8,0,13.1c0,1.2-0.3,2.3-0.5,3.6h-18c-0.2-1.3-0.5-2.5-0.5-3.7
			c0-22,0-44,0-66C586.4,485.4,586.8,484.3,587,482.9"/>
		<path class="st0" d="M796.5,556.5c-4.3,0-8.1,0-11.9,0c-0.9,0-1.9-0.1-3.2-0.2c-1-2.8-1.9-5.6-3-8.8c-0.7,0.6-1.1,0.9-1.5,1.3
			c-5.7,6.2-12.8,9.1-21.3,9.4c-9.8,0.4-18.7-1.8-26.5-7.8c-8.9-6.9-13-16.2-13.8-26.9c-0.9-11,1.5-21.3,9.1-30
			c5.7-6.4,13-10.1,21.5-11.5c9.5-1.6,18.7-0.8,26.7,4.9c1.9,1.3,3.6,3,5.8,4.9c1.1-3.2,2-6,3-8.9h15c0.2,1.1,0.7,2.2,0.7,3.4
			c0,22.2,0,44.4,0,66.6C797.1,554,796.8,555.1,796.5,556.5 M734.1,519.9c-0.3,10.7,7.4,20.3,21.2,20.3c12.7,0,21.5-8.4,21.5-20.5
			c-0.1-12.1-8.9-20.3-21.7-20.3C742.2,499.5,733.9,508,734.1,519.9"/>
	</g>
	<path class="st1" d="M353.8,312.2c-12.8,24.2-32.9,39.3-59.2,45.5c-21.7,5.1-43.1,3-62.9-7.9c-21.1-11.7-36.6-28.7-45.2-51.4
		c-11.3-29.7-22.4-59.6-33.3-89.4c-9.8-27-19.4-54.1-29-81.1c-5.9-16.6-11.9-33.2-17.5-49.9c-5.2-15.7-0.8-30.4,7-43.8
		c18.6-31.7,55.4-35.8,83.6-21.9c14.1,7,23.1,19.2,28.4,34.2c8.6,24,17.3,48,26,72c7,19.3,14,38.7,21.1,58c0.2,1.5,0.3,3.1,0.8,4.6
		c5,14.1,9.8,28.3,15.2,42.3c6.8,17.6,12.7,35.7,21.3,52.4C319.2,293.4,334.8,305.3,353.8,312.2"/>
	<path class="st0" d="M606.8,307.1c-1.8-0.4-3.8-0.4-5.4-1.2c-23.1-10.6-39.9-27.1-48.5-51.6c-8.2-23.5-17-46.7-25.3-70.1
		c-1.3-3.7-1.9-7.7-2.8-11.5c16.3-44.4,31.5-89.3,49.1-133.1c12.2-30.3,42.9-45.9,74.5-37.3c25.7,7,45,29.5,44.3,57.9
		c-0.2,10.2-2,19.9-5.5,29.3c-11.6,31.7-23.3,63.3-34.8,95c-13.5,37-26.8,74.2-40.3,111.2C610.7,299.7,608.6,303.3,606.8,307.1"/>
	<path class="st2" d="M353.8,312.2c-19-6.9-34.6-18.8-43.7-36.6c-8.6-16.7-14.5-34.8-21.3-52.4c-5.4-14-10.2-28.2-15.2-42.3
		c-0.5-1.4-0.5-3-0.8-4.6c4.7-11.7,9.6-23.3,14-35.1c8.8-23.7,17.2-47.6,25.9-71.3c1.5-4.2,4-8,6-12c25.9,10.8,43.4,29.4,52.7,55.9
		c4.1,11.6,8.3,23.3,12.7,34.8c5.1,13.1,10.5,26,15.8,39.1c0.6,1.5,0.7,3.1,1,4.7c-1.9,4.6-3.8,9.2-5.6,13.9
		c-12.3,32-24.4,64.1-36.7,96.1C357.3,305.7,355.4,308.9,353.8,312.2"/>
	<path class="st3" d="M606.8,307.1c-3.9,12.4-12.5,21.7-22.5,29.1c-12.1,8.9-25.5,15.9-40.7,18.9c-44.2,9-87.8-14.5-103.8-56.8
		c-13.3-35.2-25.9-70.6-38.9-106c-0.3-1.5-0.4-3.2-1-4.7c-5.2-13-10.7-26-15.8-39.1c-4.5-11.5-8.6-23.1-12.7-34.8
		c-9.3-26.4-26.8-45.1-52.7-55.9c15.5-28.8,39.5-44.9,72.1-47.9c35.1-3.2,63.6,9.4,84.1,38c6.4,8.9,10.6,19.5,14.5,29.8
		c11.2,29.6,21.8,59.5,32.6,89.3c0.7,1.9,1.9,3.7,2.8,5.5c0.9,3.8,1.4,7.8,2.8,11.5c8.4,23.4,17.2,46.7,25.3,70.1
		c8.5,24.5,25.3,41,48.5,51.6C603.1,306.7,605,306.7,606.8,307.1"/>
</g>
</svg>
